<svg xmlns="http://www.w3.org/2000/svg" width="104" height="19" viewBox="0 0 104 19"><g fill="#FFF"><path d="M103.16 16.807a.835.835 0 0 1 0-1.672.84.84 0 0 1 .84.837.837.837 0 0 1-.84.837zm0-1.548c-.392 0-.706.32-.706.71 0 .394.314.707.705.707a.708.708 0 0 0 0-1.418zm.355 1.23h-.087l-.038-.026-.252-.397-.03-.01h-.13v.386l-.044.048h-.078l-.04-.047v-.94c0-.04.02-.066.056-.07a2.71 2.71 0 0 1 .236-.008c.257 0 .407.078.407.313v.015c0 .157-.078.24-.208.277l.24.39.005.03c0 .02-.01.04-.037.04zm-.156-.753c0-.123-.072-.17-.243-.17H102.973v.35c.034 0 .118.005.144.005.174 0 .242-.046.242-.17v-.015zM34.3 16.95c-1.33 0-2.478-.484-3.357-1.364-1.254-1.254-1.238-2.672-1.238-5.13 0-2.458-.017-3.876 1.238-5.132.88-.877 2.03-1.363 3.357-1.363 2.352 0 4.11 1.384 4.56 3.93h-1.976C36.58 6.598 35.72 5.7 34.3 5.7c-.753 0-1.436.29-1.885.773-.628.682-.77 1.416-.77 3.98s.142 3.303.77 3.985c.45.483 1.132.77 1.885.77 1.42 0 2.298-.896 2.603-2.188h1.956c-.432 2.548-2.245 3.93-4.56 3.93zM46.953 15.874c-.59.61-1.49 1.077-2.728 1.077s-2.12-.467-2.71-1.076c-.863-.898-1.077-2.047-1.077-3.59 0-1.524.214-2.67 1.076-3.57.592-.608 1.473-1.074 2.71-1.074s2.137.465 2.73 1.075c.862.898 1.077 2.045 1.077 3.57 0 1.542-.214 2.69-1.077 3.59zM45.57 9.79c-.34-.34-.807-.518-1.345-.518-.54 0-.988.177-1.33.518-.555.557-.627 1.508-.627 2.495 0 .99.072 1.938.628 2.494.34.34.79.538 1.33.538.537 0 1.004-.197 1.345-.54.558-.556.63-1.504.63-2.493 0-.987-.072-1.938-.63-2.495zM55.695 16.843V11.3c0-1.418-.81-2.027-1.83-2.027s-1.886.627-1.886 2.026v5.543h-1.83V7.747h1.794v.914c.627-.68 1.507-1.02 2.422-1.02.934 0 1.705.303 2.243.824.7.682.916 1.544.916 2.567v5.813h-1.83zM62.102 9.307v7.535h-1.83V9.307H59.23v-1.4h1.04v-1.4c0-1.31.79-2.528 2.496-2.528h1.148v1.56h-.807c-.683 0-1.005.396-1.005 1.06v1.31h1.813v1.4h-1.813zM65.51 7.747h1.832v9.096h-1.83V7.747zM74.898 9.88c-.412-.41-.735-.607-1.364-.607-.988 0-1.813.79-1.813 2.043v5.527h-1.83V7.747h1.795v.986c.467-.645 1.4-1.094 2.424-1.094.877 0 1.542.23 2.17.86l-1.382 1.38zM88.503 16.843V11.3c0-1.418-.808-2.027-1.83-2.027-.987 0-1.885.627-1.885 1.935v5.636h-1.83V11.3c0-1.417-.81-2.026-1.832-2.026S79.24 9.9 79.24 11.3v5.544h-1.83V7.747h1.795v.914c.61-.662 1.507-1.02 2.423-1.02 1.13 0 2.01.45 2.584 1.327.735-.898 1.652-1.327 2.854-1.327.934 0 1.76.303 2.298.824.7.682.97 1.544.97 2.567v5.813h-1.83zM92.792 7.747h1.83v9.096h-1.83V7.747zM99.882 16.843c-1.705 0-2.495-1.22-2.495-2.53V9.306h-1.04v-1.4h1.04V5.144h1.83v2.76h1.76v1.402h-1.76v4.917c0 .662.324 1.058 1.006 1.058h.755v1.56h-1.096z"/></g><path fill="#FFF" d="M10.584 12.725c-.02.368-.035.806-.17 1.154-.073.184-.144.38-.24.555-.05.093-.107.18-.17.265-.464.634-3.34 1.366-3.944 1.39L2.246 9.15l1.506-.475.752-.055c1.173-.05 2.418-.045 3.56.262l2.52 3.843z"/><path fill="#FFF" d="M11.133 13.997c-.95-.104-1.894-.27-2.794-.592-1.008-.36-1.96-.928-2.637-1.77-.692-.856-1.046-1.93-1.204-3.01l-.08-.79h7.8l-1.087 6.162z"/><linearGradient id="a" gradientUnits="userSpaceOnUse" x1="14.105" y1="-.005" x2="14.105" y2="14.166"><stop offset="0" stop-color="#FFF"/><stop offset=".475" stop-color="#f37b20"/><stop offset=".875" stop-color="#ee4623"/></linearGradient><path fill="url(#a)" d="M21.345 1.477C20.507.92 19.532.594 18.555.384c-1.243-.267-2.52-.357-3.788-.38-1.294-.025-2.595.007-3.88.17C9.813.31 8.733.54 7.744.987a5.74 5.74 0 0 0-1.74 1.188c-.7.716-1.14 1.63-1.368 2.597a9.45 9.45 0 0 0-.232 1.805A12.485 12.485 0 0 0 4.42 7.83c.002.05-.004.147.026.17.037.03.217-.01.272-.012 1.226-.045 2.513-.008 3.695.352.774.236 1.498.643 1.99 1.295.716.947.853 2.22.76 3.37-.028.332-.082.66-.172.98 1.95.23 3.957.24 5.907.037 1.238-.13 2.494-.368 3.63-.895 1.01-.468 1.883-1.202 2.434-2.178.867-1.536.97-3.484.77-5.2-.2-1.716-.915-3.292-2.385-4.273-1.6-1.065 1.604 1.07 0 0z"/><linearGradient id="b" gradientUnits="userSpaceOnUse" x1="7.543" y1="8.569" x2="7.543" y2="16.217"><stop offset="0" stop-color="#FFF"/><stop offset=".027" stop-color="#fff7ec"/><stop offset=".113" stop-color="#fde0b6"/><stop offset=".197" stop-color="#fccd89"/><stop offset=".277" stop-color="#fbbe66"/><stop offset=".352" stop-color="#fbb44d"/><stop offset=".42" stop-color="#faad3e"/><stop offset=".475" stop-color="#faab39"/><stop offset=".875" stop-color="#f5861f"/></linearGradient><path fill="url(#b)" d="M10.158 10.37c-.808-1.496-2.763-1.712-4.28-1.757-.46-.014-.92-.012-1.38.008.126.866.366 1.72.822 2.47a5.1 5.1 0 0 0 1.644 1.654c.774.49 1.656.79 2.544.99.237.055.476.1.715.142.026.004.146.042.168.028.04-.023.07-.257.08-.306a4.96 4.96 0 0 0 .09-.617c.075-.865.02-1.83-.402-2.61-.202-.375.278.513 0 0z"/><linearGradient id="c" gradientUnits="userSpaceOnUse" x1="5.071" y1="8.668" x2="5.071" y2="16.239"><stop offset="0" stop-color="#FFF"/><stop offset=".027" stop-color="#fff7ec"/><stop offset=".113" stop-color="#fde0b6"/><stop offset=".197" stop-color="#fccd89"/><stop offset=".277" stop-color="#fbbe66"/><stop offset=".352" stop-color="#fbb44d"/><stop offset=".42" stop-color="#faad3e"/><stop offset=".475" stop-color="#faab39"/><stop offset=".875" stop-color="#f5861f"/></linearGradient><path fill="url(#c)" d="M9.25 14.317a10.822 10.822 0 0 1-.935-.266 7.74 7.74 0 0 1-1.722-.81 5.66 5.66 0 0 1-2.062-2.345 7.16 7.16 0 0 1-.537-1.654 8.138 8.138 0 0 1-.082-.466c-.017-.127-.034-.11-.16-.098-.092.01-.185.02-.278.033-.32.04-.638.1-.95.183-.616.164-1.218.436-1.666.9-.53.545-.754 1.29-.823 2.034-.088.942-.02 2.008.504 2.823.84 1.3 2.585 1.516 4.008 1.573.825.033 1.658.024 2.478-.078.905-.112 1.868-.336 2.567-.958.22-.197.408-.43.552-.69-.02-.004-.624-.117-.892-.18z"/><linearGradient id="d" gradientUnits="userSpaceOnUse" x1="10.982" y1="16.753" x2="10.982" y2="18.995"><stop offset="0" stop-color="#FFF"/><stop offset=".099" stop-color="#fef5eb"/><stop offset=".302" stop-color="#fdd9b7"/><stop offset=".533" stop-color="#fbb775"/><stop offset="1" stop-color="#f5861f"/></linearGradient><path fill="url(#d)" d="M12.196 16.997c-.232-.155-.53-.2-.803-.224a4.39 4.39 0 0 0-1.05.024c-.25.04-.517.107-.705.29-.208.2-.258.5-.258.78 0 .272.046.567.245.768.215.217.54.285.833.318.548.063 1.392.113 1.833-.29.43-.392.382-1.333-.094-1.666-.24-.16.238.166 0 0z"/></svg>